<?xml version="1.0" encoding="utf-8"?>
<!-- Generator: Adobe Illustrator 18.1.1, SVG Export Plug-In . SVG Version: 6.00 Build 0)  -->
<svg version="1.1" id="Layer_1" xmlns="http://www.w3.org/2000/svg" xmlns:xlink="http://www.w3.org/1999/xlink" x="0px" y="0px"
	 width="161.6px" height="28.8px" viewBox="-224 382.2 161.6 28.8" enable-background="new -224 382.2 161.6 28.8"
	 xml:space="preserve">
<g enable-background="new    ">
	<path fill="#FFFFFF" d="M-217.7,384c2,0,3.5,0.6,4.7,1.9c1.1,1.2,1.6,2.7,1.6,4.5v3.9c0,1.8-0.6,3.3-1.8,4.5s-2.7,1.9-4.5,1.9h-2.3
		v10h-4V384H-217.7z M-215.3,390.4c0-0.7-0.2-1.3-0.6-1.7c-0.4-0.4-1-0.6-1.7-0.6h-2.4v8.5h2.4c0.6,0,1.2-0.2,1.6-0.7
		c0.4-0.5,0.7-1,0.7-1.6C-215.3,394.3-215.3,390.4-215.3,390.4z"/>
	<path fill="#FFFFFF" d="M-201.8,384c2.2,0,3.9,0.6,4.9,1.9c0.9,1.1,1.4,2.6,1.4,4.5v3.9c0,1.9-0.7,3.5-2.2,4.8l3,11.7h-4.4
		l-2.4-10.1c-0.1,0-0.2,0-0.4,0h-2.3v10h-4V384H-201.8z M-199.4,390.4c0-1.5-0.8-2.3-2.3-2.3h-2.4v8.5h2.4c0.6,0,1.2-0.2,1.6-0.7
		c0.4-0.5,0.7-1,0.7-1.6V390.4z"/>
	<path fill="#FFFFFF" d="M-191.2,410.7V384h11.5v4h-7.4v7.3h5.4v4h-5.4v7.3h7.4v4h-11.5V410.7z"/>
	<path fill="#FFFFFF" d="M-163.6,404c0,1.9-0.5,3.5-1.4,4.8c-0.7,0.9-1.6,1.5-2.8,1.9c-0.6,0.2-1.4,0.3-2.2,0.3
		c-1.6,0-2.9-0.4-3.9-1.2c-0.9-0.6-1.6-1.5-2.1-2.6s-0.8-2.4-0.9-3.8l3.8-0.3c0.2,1.6,0.6,2.7,1.2,3.4c0.5,0.5,1,0.8,1.7,0.8
		c0.9,0,1.6-0.5,2.1-1.3c0.3-0.4,0.4-1,0.4-1.8c0-1.1-0.5-2.2-1.5-3.3c-0.8-0.8-2-1.9-3.6-3.4c-1.3-1.3-2.3-2.5-2.8-3.5
		c-0.6-1.2-0.9-2.4-0.9-3.8c0-2.4,0.8-4.3,2.5-5.5c1-0.8,2.3-1.1,3.7-1.1c1.4,0,2.7,0.3,3.7,1c0.8,0.5,1.4,1.2,1.9,2.1
		s0.8,1.9,0.9,3.1l-3.9,0.7c-0.1-1.1-0.4-1.9-0.9-2.6c-0.4-0.4-0.9-0.7-1.6-0.7c-0.7,0-1.3,0.3-1.7,1c-0.3,0.5-0.5,1.2-0.5,2
		c0,1.2,0.5,2.5,1.6,3.7c0.4,0.5,1,1.1,1.8,1.7c0.9,0.8,1.6,1.3,1.9,1.6c1,1,1.8,2,2.3,2.9c0.3,0.5,0.5,0.9,0.6,1.3
		C-163.8,402.4-163.6,403.3-163.6,404z"/>
	<path fill="#FFFFFF" d="M-147.5,404c0,1.9-0.5,3.5-1.4,4.8c-0.7,0.9-1.6,1.5-2.8,1.9c-0.6,0.2-1.4,0.3-2.2,0.3
		c-1.6,0-2.9-0.4-3.9-1.2c-0.9-0.6-1.6-1.5-2.1-2.6s-0.8-2.4-0.9-3.8l3.8-0.3c0.2,1.6,0.6,2.7,1.2,3.4c0.5,0.5,1,0.8,1.7,0.8
		c0.9,0,1.6-0.5,2.1-1.3c0.3-0.4,0.4-1,0.4-1.8c0-1.1-0.5-2.2-1.5-3.3c-0.8-0.8-2-1.9-3.6-3.4c-1.3-1.3-2.3-2.5-2.8-3.5
		c-0.6-1.2-0.9-2.4-0.9-3.8c0-2.4,0.8-4.3,2.5-5.5c1-0.8,2.3-1.1,3.8-1.1c1.4,0,2.7,0.3,3.7,1c0.8,0.5,1.4,1.2,1.9,2.1
		s0.8,1.9,0.9,3.1l-3.9,0.7c-0.1-1.1-0.4-1.9-0.9-2.6c-0.4-0.4-0.9-0.7-1.6-0.7c-0.7,0-1.3,0.3-1.7,1c-0.3,0.5-0.5,1.2-0.5,2
		c0,1.2,0.5,2.5,1.6,3.7c0.4,0.5,1,1.1,1.8,1.7c0.9,0.8,1.6,1.3,1.9,1.6c1,1,1.8,2,2.3,2.9c0.3,0.5,0.5,0.9,0.6,1.3
		C-147.8,402.4-147.6,403.3-147.5,404z"/>
	<path fill="#FFFFFF" d="M-144.2,410.7V384h6c1.6,0,3,0.4,4.3,1.3c1.1,0.7,1.9,1.8,2.3,3.3c0.3,0.8,0.4,1.7,0.4,2.8
		c0,1.8-0.5,3.2-1.4,4.3c-0.4,0.5-0.9,0.8-1.4,1c0.9,0.3,1.7,1,2.3,2c0.4,0.7,0.7,1.6,0.9,2.6c0.1,0.6,0.2,1.2,0.2,1.9
		c0,1.7-0.3,3.1-1,4.3c-0.5,0.9-1.2,1.7-2.1,2.2c-1,0.6-2,0.9-3,0.9L-144.2,410.7L-144.2,410.7z M-139.9,394.8h1.7
		c1.2,0,2.1-0.6,2.5-1.8c0.2-0.5,0.2-1,0.2-1.7c0-1.1-0.3-1.9-0.8-2.5c-0.5-0.5-1.1-0.8-1.9-0.8h-1.7
		C-139.9,388-139.9,394.8-139.9,394.8z M-139.9,406.7h1.7c1.4,0,2.3-0.7,2.8-2.1c0.2-0.5,0.3-1,0.3-1.7c0-1.5-0.3-2.6-0.9-3.3
		c-0.5-0.6-1.3-0.9-2.3-0.9h-1.7L-139.9,406.7L-139.9,406.7z"/>
	<path fill="#FFFFFF" d="M-120.8,383.6c1.8,0,3.3,0.6,4.5,1.9c1.2,1.2,1.9,2.8,1.9,4.5v14.6c0,1.8-0.6,3.3-1.9,4.5s-2.8,1.9-4.5,1.9
		c-1.8,0-3.3-0.6-4.5-1.9c-1.2-1.2-1.9-2.8-1.9-4.5V390c0-1.8,0.6-3.3,1.9-4.5C-124.1,384.2-122.6,383.6-120.8,383.6z M-118.6,389.9
		c0-0.6-0.2-1.2-0.7-1.6c-0.4-0.4-1-0.7-1.6-0.7s-1.2,0.2-1.6,0.7s-0.7,1-0.7,1.6v14.6c0,0.6,0.2,1.2,0.7,1.6s1,0.7,1.6,0.7
		s1.2-0.2,1.6-0.7c0.4-0.4,0.7-1,0.7-1.6V389.9z"/>
	<path fill="#FFFFFF" d="M-104.6,383.6c1.8,0,3.3,0.6,4.5,1.9c1.2,1.2,1.9,2.8,1.9,4.5v14.6c0,1.8-0.6,3.3-1.9,4.5
		c-1.2,1.2-2.8,1.9-4.5,1.9c-1.8,0-3.3-0.6-4.5-1.9c-1.2-1.2-1.9-2.8-1.9-4.5V390c0-1.8,0.6-3.3,1.9-4.5
		C-107.8,384.2-106.3,383.6-104.6,383.6z M-102.4,389.9c0-0.6-0.2-1.2-0.7-1.6s-1-0.7-1.6-0.7s-1.2,0.2-1.6,0.7s-0.7,1-0.7,1.6v14.6
		c0,0.6,0.2,1.2,0.7,1.6s1,0.7,1.6,0.7s1.2-0.2,1.6-0.7c0.4-0.4,0.7-1,0.7-1.6V389.9z"/>
	<path fill="#FFFFFF" d="M-90.6,402.2v8.5h-4V384h4v9.5l4.9-9.5h4.3l-5.5,10.9l6.5,15.8h-4.7l-4.2-10.8L-90.6,402.2z"/>
	<path fill="#FFFFFF" d="M-66,404c0,1.9-0.5,3.5-1.4,4.8c-0.7,0.9-1.6,1.5-2.8,1.9c-0.6,0.2-1.4,0.3-2.2,0.3c-1.6,0-2.9-0.4-3.9-1.2
		c-0.9-0.6-1.6-1.5-2.1-2.6s-0.8-2.4-0.9-3.8l3.8-0.3c0.2,1.6,0.6,2.7,1.2,3.4c0.5,0.5,1,0.8,1.7,0.8c0.9,0,1.6-0.5,2.1-1.3
		c0.3-0.4,0.4-1,0.4-1.8c0-1.1-0.5-2.2-1.5-3.3c-0.8-0.8-2-1.9-3.6-3.4c-1.3-1.3-2.3-2.5-2.8-3.5c-0.6-1.2-0.9-2.4-0.9-3.8
		c0-2.4,0.8-4.3,2.5-5.5c1-0.8,2.3-1.1,3.8-1.1c1.4,0,2.7,0.3,3.7,1c0.8,0.5,1.4,1.2,1.9,2.1s0.8,1.9,0.9,3.1l-3.9,0.7
		c-0.1-1.1-0.4-1.9-0.9-2.6c-0.4-0.4-0.9-0.7-1.6-0.7c-0.7,0-1.3,0.3-1.7,1c-0.3,0.5-0.5,1.2-0.5,2c0,1.2,0.5,2.5,1.6,3.7
		c0.4,0.5,1,1.1,1.8,1.7c0.9,0.8,1.6,1.3,1.9,1.6c1,1,1.8,2,2.3,2.9c0.3,0.5,0.5,0.9,0.6,1.3C-66.2,402.4-66,403.3-66,404z"/>
</g>
</svg>
